<svg width="173" height="185" viewBox="0 0 173 185" fill="none" xmlns="http://www.w3.org/2000/svg">
<g clip-path="url(#clip0_1869_2047)">
<path d="M84.1452 185H85.3003C97.6509 185 102.36 181.114 102.36 168.928V109.41L90.8093 115.68L142.878 145.616C146.788 147.646 149.897 148.971 152.741 148.971C157.628 148.971 161.004 145.616 165.091 139.523L165.714 138.552C168.38 134.577 169.712 130.957 169.712 127.955C169.712 123.009 166.247 119.301 160.116 115.945L107.07 85.4796V98.1072L160.027 69.0549C166.247 65.7875 169.445 62.167 169.445 57.2219C169.445 54.2195 168.113 50.7756 165.891 46.8019L165.27 45.6539C161.271 39.2076 157.628 35.9403 152.83 35.9403C149.987 35.9403 146.698 37.2649 142.79 39.2959L90.8981 69.2315L102.36 75.5011V16.0716C102.36 3.88544 97.6509 0 85.3003 0H84.1452C71.7944 0 67.0852 3.88544 67.0852 16.0716V75.5011L78.814 69.2315L26.7452 39.2959C22.8356 37.0883 19.1926 35.6754 16.1715 35.6754C11.2845 35.6754 7.28607 39.031 4.17616 45.8305L3.64304 46.8019C1.68824 50.8639 0.444272 54.3961 0.444272 57.3986C0.444272 62.0787 3.37647 65.6992 9.59631 69.1431L62.6425 98.1072V85.4796L9.50741 115.945C3.37647 119.301 0 122.922 0 127.778C0 130.78 1.42167 134.401 3.73189 138.463L4.26502 139.258C7.9969 145.704 11.5511 149.06 16.6158 149.06C19.4591 149.06 22.8356 147.646 26.6564 145.616L78.814 115.68L67.0852 109.41V168.928C67.0852 181.114 71.7944 185 84.1452 185Z" fill="#056CC1"/>
</g>
<defs>
<clipPath id="clip0_1869_2047">
<rect width="173" height="185" fill="white"/>
</clipPath>
</defs>
</svg>
